{
    "accessors" : [
        {
            "bufferView" : 0,
            "componentType" : 5123,
            "count" : 20832,
            "max" : [
                12431
            ],
            "min" : [
                0
            ],
            "type" : "SCALAR"
        },
        {
            "bufferView" : 1,
            "componentType" : 5126,
            "count" : 12432,
            "max" : [
                1.0000004768371582,
                1.9960960149765015,
                1.0000005960464478
            ],
            "min" : [
                -1.0000003576278687,
                -2.003903865814209,
                -1.0000003576278687
            ],
            "type" : "VEC3"
        },
        {
            "bufferView" : 2,
            "componentType" : 5126,
            "count" : 12432,
            "max" : [
                1.0,
                1.0,
                1.0
            ],
            "min" : [
                -1.0,
                -1.0,
                -1.0
            ],
            "type" : "VEC3"
        },
        {
            "bufferView" : 3,
            "componentType" : 5126,
            "count" : 12432,
            "max" : [
                1.0,
                1.0,
                1.0,
                1.0
            ],
            "min" : [
                -1.0,
                -1.0,
                -1.0,
                1.0
            ],
            "type" : "VEC4"
        },
        {
            "bufferView" : 4,
            "componentType" : 5126,
            "count" : 12432,
            "max" : [
                0.9971684813499451,
                0.9971724802162498
            ],
            "min" : [
                0.002831523772329092,
                0.002827584743499756
            ],
            "type" : "VEC2"
        },
        {
            "bufferView" : 5,
            "componentType" : 5123,
            "count" : 12432,
            "max" : [
                0,
                0,
                0,
                0
            ],
            "min" : [
                0,
                0,
                0,
                0
            ],
            "type" : "VEC4"
        },
        {
            "bufferView" : 6,
            "componentType" : 5126,
            "count" : 12432,
            "max" : [
                0.0,
                0.0,
                0.0,
                0.0
            ],
            "min" : [
                0.0,
                0.0,
                0.0,
                0.0
            ],
            "type" : "VEC4"
        }
    ],
    "asset" : {
        "generator" : "Khronos Blender glTF 2.0 exporter",
        "version" : "2.0"
    },
    "bufferViews" : [
        {
            "buffer" : 0,
            "byteLength" : 41664,
            "byteOffset" : 0,
            "target" : 34963
        },
        {
            "buffer" : 0,
            "byteLength" : 149184,
            "byteOffset" : 41664,
            "target" : 34962
        },
        {
            "buffer" : 0,
            "byteLength" : 149184,
            "byteOffset" : 190848,
            "target" : 34962
        },
        {
            "buffer" : 0,
            "byteLength" : 198912,
            "byteOffset" : 340032,
            "target" : 34962
        },
        {
            "buffer" : 0,
            "byteLength" : 99456,
            "byteOffset" : 538944,
            "target" : 34962
        },
        {
            "buffer" : 0,
            "byteLength" : 99456,
            "byteOffset" : 638400,
            "target" : 34962
        },
        {
            "buffer" : 0,
            "byteLength" : 198912,
            "byteOffset" : 737856,
            "target" : 34962
        }
    ],
    "buffers" : [
        {
            "byteLength" : 936768,
            "uri" : "block.bin"
        }
    ],
    "images" : [
        {
            "name" : "BlockDiffuseColor",
            "uri" : "BlockDiffuseColor.jpg"
        },
        {
            "name" : "BlockEmissiveColor",
            "uri" : "BlockEmissiveColor.jpg"
        }
    ],
    "materials" : [
        {
            "emissiveTexture" : {
                "index" : 1
            },
            "name" : "Material",
            "pbrMetallicRoughness" : {
                "baseColorTexture" : {
                    "index" : 0
                },
                "metallicFactor" : 0.0
            }
        }
    ],
    "meshes" : [
        {
            "name" : "Cube",
            "primitives" : [
                {
                    "attributes" : {
                        "JOINTS_0" : 5,
                        "NORMAL" : 2,
                        "POSITION" : 1,
                        "TANGENT" : 3,
                        "TEXCOORD_0" : 4,
                        "WEIGHTS_0" : 6
                    },
                    "indices" : 0,
                    "material" : 0
                }
            ]
        }
    ],
    "nodes" : [
        {
            "mesh" : 0,
            "name" : "Cube"
        }
    ],
    "samplers" : [
        {}
    ],
    "scene" : 0,
    "scenes" : [
        {
            "name" : "Scene",
            "nodes" : [
                0
            ]
        }
    ],
    "textures" : [
        {
            "sampler" : 0,
            "source" : 0
        },
        {
            "sampler" : 0,
            "source" : 1
        }
    ]
}
