{
    "accessors" : [
        {
            "bufferView" : 0,
            "componentType" : 5123,
            "count" : 36,
            "max" : [
                23
            ],
            "min" : [
                0
            ],
            "type" : "SCALAR"
        },
        {
            "bufferView" : 1,
            "componentType" : 5126,
            "count" : 24,
            "max" : [
                1.0000004768371582,
                1.0,
                1.0000005960464478
            ],
            "min" : [
                -1.0000003576278687,
                -1.0,
                -1.0000003576278687
            ],
            "type" : "VEC3"
        },
        {
            "bufferView" : 2,
            "componentType" : 5126,
            "count" : 24,
            "max" : [
                1.0,
                1.0,
                1.0
            ],
            "min" : [
                -1.0,
                -1.0,
                -1.0
            ],
            "type" : "VEC3"
        }
    ],
    "asset" : {
        "generator" : "Khronos Blender glTF 2.0 exporter",
        "version" : "2.0"
    },
    "bufferViews" : [
        {
            "buffer" : 0,
            "byteLength" : 72,
            "byteOffset" : 0,
            "target" : 34963
        },
        {
            "buffer" : 0,
            "byteLength" : 288,
            "byteOffset" : 72,
            "target" : 34962
        },
        {
            "buffer" : 0,
            "byteLength" : 288,
            "byteOffset" : 360,
            "target" : 34962
        }
    ],
    "buffers" : [
        {
            "byteLength" : 648,
            "uri" : "light_test.bin"
        }
    ],
    "extensions" : {
        "KHR_lights" : {
            "lights" : [
                {
                    "color" : [
                        0.2007099986076355,
                        0.25469744205474854,
                        1.0
                    ],
                    "intensity" : 100.0,
                    "name" : "Lamp.023",
                    "type" : "point"
                },
                {
                    "color" : [
                        0.09219740331172943,
                        1.0,
                        0.15458303689956665
                    ],
                    "intensity" : 100.0,
                    "name" : "Lamp.024",
                    "spot" : {
                        "innerConeAngle" : 0.36651914687634957,
                        "outerConeAngle" : 0.5235987901687622
                    },
                    "type" : "spot"
                },
                {
                    "color" : [
                        0.0,
                        0.0,
                        0.0
                    ],
                    "name" : "Ambient_Scene",
                    "type" : "ambient"
                }
            ]
        }
    },
    "extensionsRequired" : [
        "KHR_lights"
    ],
    "extensionsUsed" : [
        "KHR_lights"
    ],
    "materials" : [
        {
            "name" : "Material",
            "pbrMetallicRoughness" : {
                "baseColorFactor" : [
                    0.7082537412643433,
                    0.7082537412643433,
                    0.7082537412643433,
                    1.0
                ],
                "metallicFactor" : 0.0,
                "roughnessFactor" : 0.31482213735580444
            }
        }
    ],
    "meshes" : [
        {
            "name" : "Cube",
            "primitives" : [
                {
                    "attributes" : {
                        "NORMAL" : 2,
                        "POSITION" : 1
                    },
                    "indices" : 0,
                    "material" : 0
                }
            ]
        }
    ],
    "nodes" : [
        {
            "mesh" : 0,
            "name" : "Cube",
            "scale" : [
                19.735553741455078,
                1.0,
                19.735553741455078
            ]
        },
        {
            "extensions" : {
                "KHR_lights" : {
                    "light" : 0
                }
            },
            "name" : "Correction_Lamp.023",
            "rotation" : [
                -0.7071067690849304,
                -0.0,
                0.0,
                0.7071067690849304
            ]
        },
        {
            "children" : [
                1
            ],
            "name" : "Lamp.023",
            "rotation" : [
                0.16907575726509094,
                0.7558802962303162,
                -0.27217137813568115,
                0.570947527885437
            ],
            "scale" : [
                1.0,
                1.0,
                0.9999999403953552
            ],
            "translation" : [
                9.257047653198242,
                4.994114398956299,
                8.76041030883789
            ]
        },
        {
            "extensions" : {
                "KHR_lights" : {
                    "light" : 1
                }
            },
            "name" : "Correction_Lamp.024",
            "rotation" : [
                -0.7071067690849304,
                -0.0,
                0.0,
                0.7071067690849304
            ]
        },
        {
            "children" : [
                3
            ],
            "name" : "Lamp.024",
            "rotation" : [
                0.3560875952243805,
                0.0,
                -0.0,
                0.9344525933265686
            ],
            "translation" : [
                -5.638260364532471,
                8.46669864654541,
                14.384805679321289
            ]
        }
    ],
    "scene" : 0,
    "scenes" : [
        {
            "extensions" : {
                "KHR_lights" : {
                    "light" : 2
                }
            },
            "name" : "Scene",
            "nodes" : [
                4,
                2,
                0
            ]
        }
    ]
}
