{
    "accessors" : [
        {
            "bufferView" : 0,
            "componentType" : 5126,
            "count" : 240,
            "max" : [
                0.07925216853618622,
                1.6788259744644165,
                10.048006057739258
            ],
            "min" : [
                -0.07925217598676682,
                0.44092613458633423,
                -9.987492561340332
            ],
            "type" : "VEC3"
        },
        {
            "bufferView" : 1,
            "componentType" : 5126,
            "count" : 240,
            "type" : "VEC3"
        },
        {
            "bufferView" : 2,
            "componentType" : 5123,
            "count" : 1380,
            "type" : "SCALAR"
        },
        {
            "bufferView" : 3,
            "componentType" : 5126,
            "count" : 240,
            "max" : [
                0.07925216853618622,
                1.6788259744644165,
                10.048006057739258
            ],
            "min" : [
                -0.07925217598676682,
                0.44092613458633423,
                -9.987492561340332
            ],
            "type" : "VEC3"
        },
        {
            "bufferView" : 4,
            "componentType" : 5126,
            "count" : 240,
            "type" : "VEC3"
        },
        {
            "bufferView" : 5,
            "componentType" : 5123,
            "count" : 1380,
            "type" : "SCALAR"
        },
        {
            "bufferView" : 6,
            "componentType" : 5126,
            "count" : 6873,
            "max" : [
                1,
                1,
                17
            ],
            "min" : [
                -1,
                -1,
                -1
            ],
            "type" : "VEC3"
        },
        {
            "bufferView" : 7,
            "componentType" : 5126,
            "count" : 6873,
            "type" : "VEC3"
        },
        {
            "bufferView" : 8,
            "componentType" : 5123,
            "count" : 11337,
            "type" : "SCALAR"
        },
        {
            "bufferView" : 9,
            "componentType" : 5126,
            "count" : 1920,
            "max" : [
                1.4266566038131714,
                0.10000002384185791,
                19.48893928527832
            ],
            "min" : [
                -1.4266566038131714,
                -0.10000002384185791,
                -0.49000000953674316
            ],
            "type" : "VEC3"
        },
        {
            "bufferView" : 10,
            "componentType" : 5126,
            "count" : 1920,
            "type" : "VEC3"
        },
        {
            "bufferView" : 11,
            "componentType" : 5123,
            "count" : 2640,
            "type" : "SCALAR"
        },
        {
            "bufferView" : 12,
            "componentType" : 5126,
            "count" : 592,
            "max" : [
                2.9816150665283203,
                0.5,
                10.000005722045898
            ],
            "min" : [
                -2.9816157817840576,
                -0.5,
                -10.000003814697266
            ],
            "type" : "VEC3"
        },
        {
            "bufferView" : 13,
            "componentType" : 5126,
            "count" : 592,
            "type" : "VEC3"
        },
        {
            "bufferView" : 14,
            "componentType" : 5123,
            "count" : 900,
            "type" : "SCALAR"
        },
        {
            "bufferView" : 15,
            "componentType" : 5126,
            "count" : 1,
            "max" : [
                0
            ],
            "min" : [
                0
            ],
            "type" : "SCALAR"
        },
        {
            "bufferView" : 16,
            "componentType" : 5126,
            "count" : 1,
            "type" : "VEC4"
        },
        {
            "bufferView" : 17,
            "componentType" : 5126,
            "count" : 15000,
            "max" : [
                4.166388888890407
            ],
            "min" : [
                0
            ],
            "type" : "SCALAR"
        },
        {
            "bufferView" : 18,
            "componentType" : 5126,
            "count" : 15000,
            "type" : "VEC3"
        },
        {
            "bufferView" : 19,
            "componentType" : 5126,
            "count" : 1,
            "max" : [
                0
            ],
            "min" : [
                0
            ],
            "type" : "SCALAR"
        },
        {
            "bufferView" : 20,
            "componentType" : 5126,
            "count" : 1,
            "type" : "VEC3"
        },
        {
            "bufferView" : 21,
            "componentType" : 5126,
            "count" : 1,
            "max" : [
                0
            ],
            "min" : [
                0
            ],
            "type" : "SCALAR"
        },
        {
            "bufferView" : 22,
            "componentType" : 5126,
            "count" : 1,
            "type" : "VEC4"
        }
    ],
    "animations" : [
        {
            "channels" : [
                {
                    "sampler" : 0,
                    "target" : {
                        "node" : 3,
                        "path" : "rotation"
                    }
                },
                {
                    "sampler" : 1,
                    "target" : {
                        "node" : 3,
                        "path" : "translation"
                    }
                }
            ],
            "name" : "Cube.001Action",
            "samplers" : [
                {
                    "input" : 15,
                    "interpolation" : "STEP",
                    "output" : 16
                },
                {
                    "input" : 17,
                    "interpolation" : "STEP",
                    "output" : 18
                }
            ]
        },
        {
            "channels" : [
                {
                    "sampler" : 0,
                    "target" : {
                        "node" : 2,
                        "path" : "translation"
                    }
                },
                {
                    "sampler" : 1,
                    "target" : {
                        "node" : 2,
                        "path" : "rotation"
                    }
                }
            ],
            "name" : "boxAction",
            "samplers" : [
                {
                    "input" : 19,
                    "interpolation" : "STEP",
                    "output" : 20
                },
                {
                    "input" : 21,
                    "interpolation" : "STEP",
                    "output" : 22
                }
            ]
        }
    ],
    "asset" : {
        "generator" : "Khronos Blender glTF 2.0 I/O",
        "version" : "2.0"
    },
    "bufferViews" : [
        {
            "buffer" : 0,
            "byteLength" : 2880,
            "byteOffset" : 0
        },
        {
            "buffer" : 0,
            "byteLength" : 2880,
            "byteOffset" : 2880
        },
        {
            "buffer" : 0,
            "byteLength" : 2760,
            "byteOffset" : 5760
        },
        {
            "buffer" : 0,
            "byteLength" : 2880,
            "byteOffset" : 8520
        },
        {
            "buffer" : 0,
            "byteLength" : 2880,
            "byteOffset" : 11400
        },
        {
            "buffer" : 0,
            "byteLength" : 2760,
            "byteOffset" : 14280
        },
        {
            "buffer" : 0,
            "byteLength" : 82476,
            "byteOffset" : 17040
        },
        {
            "buffer" : 0,
            "byteLength" : 82476,
            "byteOffset" : 99516
        },
        {
            "buffer" : 0,
            "byteLength" : 22674,
            "byteOffset" : 181992
        },
        {
            "buffer" : 0,
            "byteLength" : 23040,
            "byteOffset" : 204668
        },
        {
            "buffer" : 0,
            "byteLength" : 23040,
            "byteOffset" : 227708
        },
        {
            "buffer" : 0,
            "byteLength" : 5280,
            "byteOffset" : 250748
        },
        {
            "buffer" : 0,
            "byteLength" : 7104,
            "byteOffset" : 256028
        },
        {
            "buffer" : 0,
            "byteLength" : 7104,
            "byteOffset" : 263132
        },
        {
            "buffer" : 0,
            "byteLength" : 1800,
            "byteOffset" : 270236
        },
        {
            "buffer" : 0,
            "byteLength" : 4,
            "byteOffset" : 272036
        },
        {
            "buffer" : 0,
            "byteLength" : 16,
            "byteOffset" : 272040
        },
        {
            "buffer" : 0,
            "byteLength" : 60000,
            "byteOffset" : 272056
        },
        {
            "buffer" : 0,
            "byteLength" : 180000,
            "byteOffset" : 332056
        },
        {
            "buffer" : 0,
            "byteLength" : 4,
            "byteOffset" : 512056
        },
        {
            "buffer" : 0,
            "byteLength" : 12,
            "byteOffset" : 512060
        },
        {
            "buffer" : 0,
            "byteLength" : 4,
            "byteOffset" : 512072
        },
        {
            "buffer" : 0,
            "byteLength" : 16,
            "byteOffset" : 512076
        }
    ],
    "buffers" : [
        {
            "byteLength" : 512092,
            "uri" : "conveyor_belt.bin"
        }
    ],
    "extensions" : {
        "KHR_lights_punctual" : {
            "lights" : [
                {
                    "color" : [
                        0.36941370368003845,
                        0.36941370368003845,
                        0.36941370368003845
                    ],
                    "intensity" : 10,
                    "name" : "Sun",
                    "type" : "directional"
                },
                {
                    "color" : [
                        1,
                        1,
                        1
                    ],
                    "intensity" : 1,
                    "name" : "Lamp",
                    "type" : "point"
                },
                {
                    "color" : [
                        1,
                        1,
                        1
                    ],
                    "intensity" : 1,
                    "name" : "Lamp.002",
                    "type" : "point"
                }
            ]
        }
    },
    "extensionsRequired" : [
        "KHR_lights_punctual"
    ],
    "extensionsUsed" : [
        "KHR_lights_punctual"
    ],
    "materials" : [
        {
            "name" : "Material",
            "pbrMetallicRoughness" : {}
        }
    ],
    "meshes" : [
        {
            "name" : "Cylinder",
            "primitives" : [
                {
                    "attributes" : {
                        "NORMAL" : 1,
                        "POSITION" : 0
                    },
                    "indices" : 2
                }
            ]
        },
        {
            "name" : "Cylinder",
            "primitives" : [
                {
                    "attributes" : {
                        "NORMAL" : 4,
                        "POSITION" : 3
                    },
                    "indices" : 5
                }
            ]
        },
        {
            "name" : "Cube.002",
            "primitives" : [
                {
                    "attributes" : {
                        "NORMAL" : 7,
                        "POSITION" : 6
                    },
                    "indices" : 8
                }
            ]
        },
        {
            "name" : "Cube.001",
            "primitives" : [
                {
                    "attributes" : {
                        "NORMAL" : 10,
                        "POSITION" : 9
                    },
                    "indices" : 11
                }
            ]
        },
        {
            "name" : "Cube",
            "primitives" : [
                {
                    "attributes" : {
                        "NORMAL" : 13,
                        "POSITION" : 12
                    },
                    "indices" : 14,
                    "material" : 0
                }
            ]
        }
    ],
    "nodes" : [
        {
            "mesh" : 0,
            "name" : "Cylinder.001",
            "translation" : [
                1.8788243532180786,
                0,
                0
            ]
        },
        {
            "mesh" : 1,
            "name" : "Cylinder",
            "translation" : [
                -1.8491824865341187,
                0,
                0
            ]
        },
        {
            "mesh" : 2,
            "name" : "box",
            "translation" : [
                -0.05334436893463135,
                1.0901870727539062,
                1.635946273803711
            ]
        },
        {
            "children" : [
                2
            ],
            "mesh" : 3,
            "name" : "conveyor_belt",
            "translation" : [
                0,
                0.4947558045387268,
                -14
            ]
        },
        {
            "mesh" : 4,
            "name" : "Cube"
        },
        {
            "extensions" : {
                "KHR_lights_punctual" : {
                    "light" : 1
                }
            },
            "name" : "Lamp_Orientation",
            "rotation" : [
                -0.7071067690849304,
                0,
                0,
                0.7071067690849304
            ]
        },
        {
            "children" : [
                5
            ],
            "extensions" : {},
            "name" : "Lamp",
            "rotation" : [
                0.16907575726509094,
                0.7558802962303162,
                -0.27217137813568115,
                0.570947527885437
            ],
            "translation" : [
                3.9233994483947754,
                3.3807578086853027,
                -0.004288196563720703
            ]
        },
        {
            "extensions" : {
                "KHR_lights_punctual" : {
                    "light" : 2
                }
            },
            "name" : "Lamp.002_Orientation",
            "rotation" : [
                -0.7071067690849304,
                0,
                0,
                0.7071067690849304
            ]
        },
        {
            "children" : [
                7
            ],
            "extensions" : {},
            "name" : "Lamp.002",
            "rotation" : [
                0.16907575726509094,
                0.7558802962303162,
                -0.27217137813568115,
                0.570947527885437
            ],
            "translation" : [
                -5.022006511688232,
                3.3807578086853027,
                -0.004288196563720703
            ]
        }
    ],
    "scene" : 0,
    "scenes" : [
        {
            "name" : "Scene",
            "nodes" : [
                0,
                1,
                3,
                4,
                6,
                8
            ]
        }
    ]
}
