{
    "accessors" : [
        {
            "bufferView" : 0,
            "componentType" : 5126,
            "count" : 1040,
            "max" : [
                3.8072590827941895,
                1.6788259744644165,
                10.048006057739258
            ],
            "min" : [
                -0.07925217598676682,
                0.44092613458633423,
                -9.987492561340332
            ],
            "type" : "VEC3"
        },
        {
            "bufferView" : 1,
            "componentType" : 5126,
            "count" : 1040,
            "type" : "VEC3"
        },
        {
            "bufferView" : 2,
            "componentType" : 5126,
            "count" : 1040,
            "type" : "VEC2"
        },
        {
            "bufferView" : 3,
            "componentType" : 5123,
            "count" : 2760,
            "type" : "SCALAR"
        },
        {
            "bufferView" : 4,
            "componentType" : 5126,
            "count" : 10714,
            "max" : [
                0.9999998807907104,
                0.9999998807907104,
                17
            ],
            "min" : [
                -0.9999998807907104,
                -0.9999998807907104,
                -0.9999998807907104
            ],
            "type" : "VEC3"
        },
        {
            "bufferView" : 5,
            "componentType" : 5126,
            "count" : 10714,
            "type" : "VEC3"
        },
        {
            "bufferView" : 6,
            "componentType" : 5126,
            "count" : 10714,
            "type" : "VEC4"
        },
        {
            "bufferView" : 7,
            "componentType" : 5126,
            "count" : 10714,
            "type" : "VEC2"
        },
        {
            "bufferView" : 8,
            "componentType" : 5123,
            "count" : 12180,
            "type" : "SCALAR"
        },
        {
            "bufferView" : 9,
            "componentType" : 5126,
            "count" : 2240,
            "max" : [
                1,
                13.548088073730469,
                0.07009397447109222
            ],
            "min" : [
                -1,
                -0.34308815002441406,
                -0.07009397447109222
            ],
            "type" : "VEC3"
        },
        {
            "bufferView" : 10,
            "componentType" : 5126,
            "count" : 2240,
            "type" : "VEC3"
        },
        {
            "bufferView" : 11,
            "componentType" : 5126,
            "count" : 2240,
            "type" : "VEC4"
        },
        {
            "bufferView" : 12,
            "componentType" : 5126,
            "count" : 2240,
            "type" : "VEC2"
        },
        {
            "bufferView" : 13,
            "componentType" : 5123,
            "count" : 2640,
            "type" : "SCALAR"
        },
        {
            "bufferView" : 14,
            "componentType" : 5126,
            "count" : 225,
            "max" : [
                0.299999862909317,
                0.9999998807907104,
                0.050000015646219254
            ],
            "min" : [
                -0.29999983310699463,
                -0.9999999403953552,
                -0.050000015646219254
            ],
            "type" : "VEC3"
        },
        {
            "bufferView" : 15,
            "componentType" : 5126,
            "count" : 225,
            "type" : "VEC3"
        },
        {
            "bufferView" : 16,
            "componentType" : 5126,
            "count" : 225,
            "type" : "VEC4"
        },
        {
            "bufferView" : 17,
            "componentType" : 5126,
            "count" : 225,
            "type" : "VEC2"
        },
        {
            "bufferView" : 18,
            "componentType" : 5123,
            "count" : 228,
            "type" : "SCALAR"
        },
        {
            "bufferView" : 19,
            "componentType" : 5126,
            "count" : 15000,
            "max" : [
                4.166388888890407
            ],
            "min" : [
                0
            ],
            "type" : "SCALAR"
        },
        {
            "bufferView" : 20,
            "componentType" : 5126,
            "count" : 15000,
            "type" : "VEC3"
        }
    ],
    "animations" : [
        {
            "channels" : [
                {
                    "sampler" : 0,
                    "target" : {
                        "node" : 2,
                        "path" : "translation"
                    }
                }
            ],
            "name" : "conveyor_belt.002Action",
            "samplers" : [
                {
                    "input" : 19,
                    "interpolation" : "STEP",
                    "output" : 20
                }
            ]
        }
    ],
    "asset" : {
        "generator" : "Khronos Blender glTF 2.0 I/O",
        "version" : "2.0"
    },
    "bufferViews" : [
        {
            "buffer" : 0,
            "byteLength" : 12480,
            "byteOffset" : 0
        },
        {
            "buffer" : 0,
            "byteLength" : 12480,
            "byteOffset" : 12480
        },
        {
            "buffer" : 0,
            "byteLength" : 8320,
            "byteOffset" : 24960
        },
        {
            "buffer" : 0,
            "byteLength" : 5520,
            "byteOffset" : 33280
        },
        {
            "buffer" : 0,
            "byteLength" : 128568,
            "byteOffset" : 38800
        },
        {
            "buffer" : 0,
            "byteLength" : 128568,
            "byteOffset" : 167368
        },
        {
            "buffer" : 0,
            "byteLength" : 171424,
            "byteOffset" : 295936
        },
        {
            "buffer" : 0,
            "byteLength" : 85712,
            "byteOffset" : 467360
        },
        {
            "buffer" : 0,
            "byteLength" : 24360,
            "byteOffset" : 553072
        },
        {
            "buffer" : 0,
            "byteLength" : 26880,
            "byteOffset" : 577432
        },
        {
            "buffer" : 0,
            "byteLength" : 26880,
            "byteOffset" : 604312
        },
        {
            "buffer" : 0,
            "byteLength" : 35840,
            "byteOffset" : 631192
        },
        {
            "buffer" : 0,
            "byteLength" : 17920,
            "byteOffset" : 667032
        },
        {
            "buffer" : 0,
            "byteLength" : 5280,
            "byteOffset" : 684952
        },
        {
            "buffer" : 0,
            "byteLength" : 2700,
            "byteOffset" : 690232
        },
        {
            "buffer" : 0,
            "byteLength" : 2700,
            "byteOffset" : 692932
        },
        {
            "buffer" : 0,
            "byteLength" : 3600,
            "byteOffset" : 695632
        },
        {
            "buffer" : 0,
            "byteLength" : 1800,
            "byteOffset" : 699232
        },
        {
            "buffer" : 0,
            "byteLength" : 456,
            "byteOffset" : 701032
        },
        {
            "buffer" : 0,
            "byteLength" : 60000,
            "byteOffset" : 701488
        },
        {
            "buffer" : 0,
            "byteLength" : 180000,
            "byteOffset" : 761488
        }
    ],
    "buffers" : [
        {
            "byteLength" : 941488,
            "uri" : "conveyor_belt.bin"
        }
    ],
    "extensions" : {},
    "images" : [
        {
            "mimeType" : "image/jpg",
            "name" : "box_normal",
            "uri" : "box_normal.jpg"
        },
        {
            "mimeType" : "image/jpg",
            "name" : "box_diff",
            "uri" : "box_diff.jpg"
        },
        {
            "mimeType" : "image/jpg",
            "name" : "box_mr",
            "uri" : "box_mr.jpg"
        },
        {
            "mimeType" : "image/jpg",
            "name" : "belt_norm",
            "uri" : "belt_norm.jpg"
        },
        {
            "mimeType" : "image/jpg",
            "name" : "belt_diff",
            "uri" : "belt_diff.jpg"
        },
        {
            "mimeType" : "image/jpg",
            "name" : "belt_mr",
            "uri" : "belt_mr.jpg"
        },
        {
            "mimeType" : "image/jpg",
            "name" : "base_norm",
            "uri" : "base_norm.jpg"
        },
        {
            "mimeType" : "image/jpg",
            "name" : "base_diff",
            "uri" : "base_diff.jpg"
        },
        {
            "mimeType" : "image/jpg",
            "name" : "base_mr",
            "uri" : "base_mr.jpg"
        }
    ],
    "materials" : [
        {
            "name" : "Material",
            "pbrMetallicRoughness" : {
                "baseColorFactor" : [
                    0.06997548788785934,
                    0.06997548788785934,
                    0.06997548788785934,
                    1
                ],
                "metallicFactor" : 1,
                "roughnessFactor" : 0.7394366264343262
            }
        },
        {
            "name" : "box_mat",
            "normalTexture" : {
                "index" : 0,
                "texCoord" : 0
            },
            "pbrMetallicRoughness" : {
                "baseColorTexture" : {
                    "index" : 1,
                    "texCoord" : 0
                },
                "metallicRoughnessTexture" : {
                    "index" : 2,
                    "texCoord" : 0
                }
            }
        },
        {
            "name" : "belt",
            "normalTexture" : {
                "index" : 3,
                "texCoord" : 0
            },
            "pbrMetallicRoughness" : {
                "baseColorTexture" : {
                    "index" : 4,
                    "texCoord" : 0
                },
                "metallicRoughnessTexture" : {
                    "index" : 5,
                    "texCoord" : 0
                }
            }
        },
        {
            "name" : "base",
            "normalTexture" : {
                "index" : 6,
                "texCoord" : 0
            },
            "pbrMetallicRoughness" : {
                "baseColorTexture" : {
                    "index" : 7,
                    "texCoord" : 0
                },
                "metallicRoughnessTexture" : {
                    "index" : 8,
                    "texCoord" : 0
                }
            }
        }
    ],
    "meshes" : [
        {
            "name" : "Cylinder",
            "primitives" : [
                {
                    "attributes" : {
                        "NORMAL" : 1,
                        "POSITION" : 0,
                        "TEXCOORD_0" : 2
                    },
                    "indices" : 3,
                    "material" : 0
                }
            ]
        },
        {
            "name" : "box",
            "primitives" : [
                {
                    "attributes" : {
                        "NORMAL" : 5,
                        "POSITION" : 4,
                        "TANGENT" : 6,
                        "TEXCOORD_0" : 7
                    },
                    "indices" : 8,
                    "material" : 1
                }
            ]
        },
        {
            "name" : "conveyor_belt",
            "primitives" : [
                {
                    "attributes" : {
                        "NORMAL" : 10,
                        "POSITION" : 9,
                        "TANGENT" : 11,
                        "TEXCOORD_0" : 12
                    },
                    "indices" : 13,
                    "material" : 2
                }
            ]
        },
        {
            "name" : "Cube.003",
            "primitives" : [
                {
                    "attributes" : {
                        "NORMAL" : 15,
                        "POSITION" : 14,
                        "TANGENT" : 16,
                        "TEXCOORD_0" : 17
                    },
                    "indices" : 18,
                    "material" : 3
                }
            ]
        }
    ],
    "nodes" : [
        {
            "mesh" : 0,
            "name" : "Cylinder",
            "translation" : [
                -1.8491824865341187,
                0,
                0
            ]
        },
        {
            "mesh" : 1,
            "name" : "box",
            "rotation" : [
                -0.7071068286895752,
                0,
                0,
                0.7071067094802856
            ],
            "scale" : [
                0.6971197128295898,
                0.6971195340156555,
                0.6971195340156555
            ],
            "translation" : [
                -0.03718741238117218,
                1.1398100852966309,
                -0.7599908113479614
            ]
        },
        {
            "children" : [
                1
            ],
            "mesh" : 2,
            "name" : "conveyor_belt",
            "rotation" : [
                0.7071068286895752,
                0,
                0,
                0.7071067094802856
            ],
            "scale" : [
                1.4344738721847534,
                1.434473991394043,
                1.434473991394043
            ],
            "translation" : [
                0,
                0.4947558045387268,
                -12.15999984741211
            ]
        },
        {
            "mesh" : 3,
            "name" : "conveyor_belt_base",
            "rotation" : [
                0.7071068286895752,
                0,
                0,
                0.7071067094802856
            ],
            "scale" : [
                9.999482154846191,
                9.999483108520508,
                9.999483108520508
            ]
        }
    ],
    "scene" : 0,
    "scenes" : [
        {
            "extras" : {
                "BakeTool_Jobs" : {}
            },
            "name" : "Scene",
            "nodes" : [
                0,
                2,
                3
            ]
        }
    ],
    "textures" : [
        {
            "source" : 0
        },
        {
            "source" : 1
        },
        {
            "source" : 2
        },
        {
            "source" : 3
        },
        {
            "source" : 4
        },
        {
            "source" : 5
        },
        {
            "source" : 6
        },
        {
            "source" : 7
        },
        {
            "source" : 8
        }
    ]
}
