{
    "accessors" : [
        {
            "bufferView" : 0,
            "componentType" : 5123,
            "count" : 2670,
            "max" : [
                1859
            ],
            "min" : [
                0
            ],
            "type" : "SCALAR"
        },
        {
            "bufferView" : 1,
            "componentType" : 5126,
            "count" : 1860,
            "max" : [
                0.9510578513145447,
                1.0,
                0.9999999403953552
            ],
            "min" : [
                -0.9510578513145447,
                -1.0,
                -0.9999999403953552
            ],
            "type" : "VEC3"
        },
        {
            "bufferView" : 2,
            "componentType" : 5126,
            "count" : 1860,
            "max" : [
                0.9920774102210999,
                0.9920775294303894,
                0.980847954750061
            ],
            "min" : [
                -0.9920774102210999,
                -0.9920775294303894,
                -0.9808480143547058
            ],
            "type" : "VEC3"
        },
        {
            "bufferView" : 3,
            "componentType" : 5126,
            "count" : 1860,
            "max" : [
                0.9932266473770142,
                0.9822092056274414,
                1.0,
                1.0
            ],
            "min" : [
                -0.9821617007255554,
                -0.9920777082443237,
                -0.9808550477027893,
                1.0
            ],
            "type" : "VEC4"
        },
        {
            "bufferView" : 4,
            "componentType" : 5126,
            "count" : 1860,
            "max" : [
                0.9950085878372192,
                0.9950162377208471
            ],
            "min" : [
                0.004991443827748299,
                0.004983723163604736
            ],
            "type" : "VEC2"
        },
        {
            "bufferView" : 5,
            "componentType" : 5123,
            "count" : 1860,
            "max" : [
                0,
                0,
                0,
                0
            ],
            "min" : [
                0,
                0,
                0,
                0
            ],
            "type" : "VEC4"
        },
        {
            "bufferView" : 6,
            "componentType" : 5126,
            "count" : 1860,
            "max" : [
                0.0,
                0.0,
                0.0,
                0.0
            ],
            "min" : [
                0.0,
                0.0,
                0.0,
                0.0
            ],
            "type" : "VEC4"
        }
    ],
    "asset" : {
        "generator" : "Khronos Blender glTF 2.0 exporter",
        "version" : "2.0"
    },
    "bufferViews" : [
        {
            "buffer" : 0,
            "byteLength" : 5340,
            "byteOffset" : 0,
            "target" : 34963
        },
        {
            "buffer" : 0,
            "byteLength" : 22320,
            "byteOffset" : 5340,
            "target" : 34962
        },
        {
            "buffer" : 0,
            "byteLength" : 22320,
            "byteOffset" : 27660,
            "target" : 34962
        },
        {
            "buffer" : 0,
            "byteLength" : 29760,
            "byteOffset" : 49980,
            "target" : 34962
        },
        {
            "buffer" : 0,
            "byteLength" : 14880,
            "byteOffset" : 79740,
            "target" : 34962
        },
        {
            "buffer" : 0,
            "byteLength" : 14880,
            "byteOffset" : 94620,
            "target" : 34962
        },
        {
            "buffer" : 0,
            "byteLength" : 29760,
            "byteOffset" : 109500,
            "target" : 34962
        }
    ],
    "buffers" : [
        {
            "byteLength" : 139260,
            "uri" : "SphereObstacle.bin"
        }
    ],
    "images" : [
        {
            "name" : "SphereObstacleDiffuse",
            "uri" : "SphereObstacleDiffuse.jpg"
        },
        {
            "name" : "SphereObstacleEmissive",
            "uri" : "SphereObstacleEmissive.jpg"
        }
    ],
    "materials" : [
        {
            "emissiveTexture" : {
                "index" : 1
            },
            "name" : "Material",
            "pbrMetallicRoughness" : {
                "baseColorTexture" : {
                    "index" : 0
                },
                "metallicFactor" : 0.0
            }
        }
    ],
    "meshes" : [
        {
            "name" : "Icosphere",
            "primitives" : [
                {
                    "attributes" : {
                        "JOINTS_0" : 5,
                        "NORMAL" : 2,
                        "POSITION" : 1,
                        "TANGENT" : 3,
                        "TEXCOORD_0" : 4,
                        "WEIGHTS_0" : 6
                    },
                    "indices" : 0,
                    "material" : 0
                }
            ]
        }
    ],
    "nodes" : [
        {
            "mesh" : 0,
            "name" : "SphereObstacle"
        }
    ],
    "samplers" : [
        {}
    ],
    "scene" : 0,
    "scenes" : [
        {
            "name" : "Scene",
            "nodes" : [
                0
            ]
        }
    ],
    "textures" : [
        {
            "sampler" : 0,
            "source" : 0
        },
        {
            "sampler" : 0,
            "source" : 1
        }
    ]
}
