{
    "accessors" : [
        {
            "bufferView" : 0,
            "componentType" : 5123,
            "count" : 1446,
            "max" : [
                930
            ],
            "min" : [
                0
            ],
            "type" : "SCALAR"
        },
        {
            "bufferView" : 1,
            "componentType" : 5126,
            "count" : 931,
            "max" : [
                0.9999998807907104,
                0.4999956488609314,
                0.9999998807907104
            ],
            "min" : [
                -1.0000003576278687,
                -0.5000081658363342,
                -1.0000003576278687
            ],
            "type" : "VEC3"
        },
        {
            "bufferView" : 2,
            "componentType" : 5126,
            "count" : 931,
            "max" : [
                1.0,
                0.9674904942512512,
                0.9234982132911682
            ],
            "min" : [
                -1.0,
                -1.0,
                -1.0
            ],
            "type" : "VEC3"
        },
        {
            "bufferView" : 3,
            "componentType" : 5126,
            "count" : 931,
            "max" : [
                0.9949896335601807,
                1.0
            ],
            "min" : [
                0.0,
                0.00489962100982666
            ],
            "type" : "VEC2"
        }
    ],
    "asset" : {
        "generator" : "Khronos Blender glTF 2.0 exporter",
        "version" : "2.0"
    },
    "bufferViews" : [
        {
            "buffer" : 0,
            "byteLength" : 2892,
            "byteOffset" : 0,
            "target" : 34963
        },
        {
            "buffer" : 0,
            "byteLength" : 11172,
            "byteOffset" : 2892,
            "target" : 34962
        },
        {
            "buffer" : 0,
            "byteLength" : 11172,
            "byteOffset" : 14064,
            "target" : 34962
        },
        {
            "buffer" : 0,
            "byteLength" : 7448,
            "byteOffset" : 25236,
            "target" : 34962
        }
    ],
    "buffers" : [
        {
            "byteLength" : 32684,
            "uri" : "ramp.bin"
        }
    ],
    "images" : [
        {
            "name" : "RampDiffuseColor",
            "uri" : "RampDiffuseColor.jpg"
        },
        {
            "name" : "RampEmissionColor",
            "uri" : "RampEmissionColor.jpg"
        }
    ],
    "materials" : [
        {
            "emissiveTexture" : {
                "index" : 1
            },
            "name" : "RampMaterial",
            "pbrMetallicRoughness" : {
                "baseColorTexture" : {
                    "index" : 0
                },
                "metallicFactor" : 0.0
            }
        }
    ],
    "meshes" : [
        {
            "name" : "Cube",
            "primitives" : [
                {
                    "attributes" : {
                        "NORMAL" : 2,
                        "POSITION" : 1,
                        "TEXCOORD_0" : 3
                    },
                    "indices" : 0,
                    "material" : 0
                }
            ]
        }
    ],
    "nodes" : [
        {
            "mesh" : 0,
            "name" : "Cube",
            "scale" : [
                1.0,
                1.0000001192092896,
                1.0
            ]
        }
    ],
    "samplers" : [
        {}
    ],
    "scene" : 0,
    "scenes" : [
        {
            "name" : "Scene",
            "nodes" : [
                0
            ]
        }
    ],
    "textures" : [
        {
            "sampler" : 0,
            "source" : 0
        },
        {
            "sampler" : 0,
            "source" : 1
        }
    ]
}
